# xmcd CD database file
#
# Track frame offsets:
#	150
#	13450
#	31192
#	44357
#	57222
#	65750
#	79240
#	91277
#	107402
#	120772
#
# Disc length: 1826 seconds
#
# Revision: 0
# Processed by: cddbd v1.4PL0 Copyright (c) Steve Scherf et al.
# Submitted via: CDex 1.40Release
#
DISCID=7907200a
DTITLE=Jerry Lee Lewis - Mickey Gilley - Back to Back
DYEAR=1996
DGENRE=Country
TTITLE0=You win again
TTITLE1=Middle age crazy
TTITLE2=Whole lotta shakin' goin' on
TTITLE3=Chantilly lace
TTITLE4=Great balls of fire
TTITLE5=Don't all the girls all get  prettier at closing time
TTITLE6=That's all that matters
TTITLE7=A headache tomorrow (or a heartache tonight)
TTITLE8=True love ways
TTITLE9=Stand by me
EXTD=YEAR: 1996 ID3G: 2
EXTT0=
EXTT1=
EXTT2=
EXTT3=
EXTT4=
EXTT5=
EXTT6=
EXTT7=
EXTT8=
EXTT9=
PLAYORDER=
